<svg xmlns="http://www.w3.org/2000/svg" viewBox="0 0 498.29 498.29"><g id="Layer_2" data-name="Layer 2"><g id="Juju_Logo" data-name="Juju Logo"><path d="M128,304.78l-13.86-5.86-11.72-4.27-21.86,6.4L56,294.65,9.5,297.21A244.7,244.7,0,0,0,133.85,464.66V361.28l13.86-20.79-10.13-26.12Z" style="fill:#085126"></path><path d="M370.73,304.78l13.86-5.86,11.72-4.27,21.86,6.4,24.52-6.4,46.52,2.56A244.7,244.7,0,0,1,364.86,464.66V361.28L351,340.49l10.13-26.12Z" style="fill:#085126"></path><path d="M249.36,445.86H114v6.88a243.26,243.26,0,0,0,135.2,40.79h.41a243.26,243.26,0,0,0,135.2-40.79v-6.88Z" style="fill:#3a76ba"></path><path d="M192.15,196.58q-7.8-8.66-7.8-25.7V80.07h25.3v89.8a27.85,27.85,0,0,0,1.21,9.24c.81,2.22,2.52,3.32,5.15,3.32s4.34-1.08,5.15-3.25a28,28,0,0,0,1.21-9.31V80.07h25.29v90.81q0,17-7.8,25.7T216,205.24Q199.95,205.24,192.15,196.58Z" style="fill:#441f00"></path><path d="M334.52,196.58q-7.8-8.66-7.8-25.7V80.07H352v89.8a28.12,28.12,0,0,0,1.21,9.24c.81,2.22,2.53,3.32,5.15,3.32s4.34-1.08,5.15-3.25a27.71,27.71,0,0,0,1.22-9.31V80.07H390v90.81q0,17-7.8,25.7t-23.86,8.66Q342.32,205.24,334.52,196.58Z" style="fill:#441f00"></path><path d="M149.67,80.07V175.5a8,8,0,0,1-1.44,5.13,6.08,6.08,0,0,1-8.78-.15,8.67,8.67,0,0,1-1.44-5.27V145.62h-25.6v31a27.89,27.89,0,0,0,4.17,15.52A26.3,26.3,0,0,0,128,201.92a38.48,38.48,0,0,0,16.21,3.32,33.38,33.38,0,0,0,16.43-4A28,28,0,0,0,171.86,190a34.66,34.66,0,0,0,4-17v-93Z" style="fill:#441f00"></path><path d="M292,80.07V175.5a8,8,0,0,1-1.44,5.13,6.08,6.08,0,0,1-8.78-.15,8.67,8.67,0,0,1-1.44-5.27V145.62h-25.6v31A27.89,27.89,0,0,0,259,192.18a26.25,26.25,0,0,0,11.43,9.74,38.48,38.48,0,0,0,16.21,3.32,33.43,33.43,0,0,0,16.43-4A28.06,28.06,0,0,0,314.23,190a34.66,34.66,0,0,0,4-17v-93Z" style="fill:#441f00"></path><circle cx="108.45" cy="262.56" r="6.65" style="fill:#441f00"></circle><circle cx="394.5" cy="262.56" r="6.65" style="fill:#441f00"></circle><text transform="translate(140.11 279.53)" style="font-size:62.63385009765625px;fill:#441f00;font-family:Cinzel-Black, Cinzel;font-weight:800;letter-spacing:0.2449909519944104em">t<tspan x="53.74" y="0" style="letter-spacing:0.2400016371189435em">our</tspan></text><rect x="67.96" y="220.07" width="366.52" height="3.13" style="fill:#441f00"></rect><polygon points="113.95 445.86 126.78 418.53 371.74 418.53 384.76 445.86 113.95 445.86" style="fill:#295293"></polygon><path d="M249.36,321.45c-68.65-.07-111.25-6.72-111.25-6.72V316l8.29,26.84H352.31L360.6,316v-1.28S318,321.38,249.36,321.45Z" style="fill:#3a76ba"></path><polygon points="133.85 361.28 364.86 361.28 352.31 342.85 146.4 342.85 133.85 361.28" style="fill:#295293"></polygon><polygon points="364.86 361.28 133.85 361.28 126.78 418.53 371.74 418.53 372 419.07 364.86 361.28" style="fill:#3a76ba"></polygon><circle cx="249.15" cy="249.15" r="244.15" style="fill:none;stroke:#441f00;stroke-miterlimit:10;stroke-width:10px"></circle></g></g></svg>